<svg xmlns:dc="http://purl.org/dc/elements/1.1/" xmlns:cc="http://creativecommons.org/ns#" xmlns:rdf="http://www.w3.org/1999/02/22-rdf-syntax-ns#" xmlns:svg="http://www.w3.org/2000/svg" xmlns="http://www.w3.org/2000/svg" xmlns:sodipodi="http://sodipodi.sourceforge.net/DTD/sodipodi-0.dtd" xmlns:inkscape="http://www.inkscape.org/namespaces/inkscape" version="1.1" x="0px" y="0px" viewBox="0 0 100 125" enable-background="new 0 0 100 100" xml:space="preserve"><path style="color:#000000;enable-background:accumulate;" d="M 63.71875 8.34375 A 1.6009002 1.6009002 0 0 0 62.3125 9.96875 L 62.3125 10.78125 C 60.029833 11.204829 55.779868 11.89886 53.21875 11.75 C 49.604382 11.539923 46.145618 9.3975784 42.53125 9.1875 C 38.916884 8.9774216 31.875 10.46875 31.875 10.46875 L 31.875 29.65625 C 31.875 29.65625 38.916884 28.164922 42.53125 28.375 C 46.145618 28.58508 49.604382 30.727421 53.21875 30.9375 C 55.779868 31.086362 60.029833 30.392329 62.3125 29.96875 L 62.3125 88.1875 L 40.125 75.34375 C 45.135061 67.803777 53.164211 63.330057 61.65625 62.59375 L 61.65625 60.1875 C 52.328857 60.935744 43.486167 65.857028 38.03125 74.15625 L 5 55.0625 L 5 57.84375 L 37.8125 76.8125 C 37.83222 76.82313 37.85481 76.8343 37.875 76.84375 L 63.3125 91.53125 C 63.857219 91.845842 64.623403 91.607549 64.9375 91.0625 L 79.4375 66 C 79.678005 65.812874 79.830005 65.520143 79.875 65.21875 L 95 39.03125 L 95 34.21875 L 78.15625 63.40625 C 74.31302 61.474965 70.229925 60.415173 66.15625 60.15625 L 66.15625 62.5625 C 69.820419 62.816606 73.471697 63.779443 76.9375 65.5 L 65.5 85.3125 L 65.5 9.96875 A 1.6009002 1.6009002 0 0 0 63.875 8.34375 A 1.6009002 1.6009002 0 0 0 63.71875 8.34375 z " fill="#000000" fill-opacity="1" fill-rule="nonzero" stroke="none" marker="none" visibility="visible" display="inline" overflow="visible"/></svg>